<svg width="862" height="870" viewBox="0 0 862 870" fill="none" xmlns="http://www.w3.org/2000/svg">
<path d="M0 673.126V456.765H402.628L402.628 673.126C402.628 781.757 312.497 869.819 201.314 869.819C90.1314 869.819 0 781.757 0 673.126Z" fill="#FFBB00"/>
<path d="M205.788 342.027L358.271 413.055H48.6828L205.788 342.027Z" fill="#FFBB00"/>
<path fill-rule="evenodd" clip-rule="evenodd" d="M205.788 342.027L0 248.989V196.693C0 88.0623 90.1314 -6.10352e-05 201.314 -6.10352e-05C312.497 -6.10352e-05 402.628 88.0623 402.628 196.693V250.337L205.788 342.027ZM201.314 111.459C201.314 87.3192 181.285 67.7498 156.578 67.7498C131.87 67.7498 111.841 87.3192 111.841 111.459C111.841 135.599 131.87 155.169 156.578 155.169C181.285 155.169 201.314 135.599 201.314 111.459Z" fill="#FFBB00"/>
<path fill-rule="evenodd" clip-rule="evenodd" d="M503.729 456.945L656.212 527.973L459.372 619.663V673.307C459.372 781.938 549.503 870 660.686 870C771.869 870 862 781.938 862 673.307V621.011L656.212 527.973L813.317 456.945H503.729ZM705.422 802.25C680.715 802.25 660.686 782.681 660.686 758.541C660.686 734.401 680.715 714.831 705.422 714.831C730.13 714.831 750.159 734.401 750.159 758.541C750.159 782.681 730.13 802.25 705.422 802.25Z" fill="#FFBB00"/>
<path d="M861.767 359.525V196.739C861.767 88.0831 771.688 0 660.57 0C549.451 0 459.372 88.0831 459.372 196.739V359.525H495.953V196.739C495.953 107.839 569.655 35.7707 660.57 35.7707C751.485 35.7707 825.186 107.839 825.186 196.739V359.525H861.767Z" fill="#FFBB00"/>
</svg>
